<svg width="115" height="115" viewBox="0 0 115 115" fill="none" xmlns="http://www.w3.org/2000/svg">
<path d="M97.5976 97.5975C87.5457 107.649 74.1095 113.596 59.9103 114.277C45.7111 114.958 31.7675 110.325 20.7997 101.281C9.83196 92.2371 2.62685 79.4317 0.590049 65.3628C-1.44676 51.294 1.83086 36.971 9.78344 25.188C17.736 13.4051 29.7931 5.00755 43.6025 1.63366C57.4118 -1.74023 71.9828 0.151572 84.4727 6.93999C96.9626 13.7284 106.476 24.9265 111.156 38.3495C115.836 51.7726 115.347 66.4577 109.785 79.54L49.3301 61.9051C64.3013 61.9051 91.0726 54.0515 88.3681 46.2945C85.6636 38.5375 80.1662 32.0663 72.9484 28.1433C65.7307 24.2204 57.3103 23.1272 49.3301 25.0769C41.3499 27.0266 34.3822 31.8794 29.7866 38.6886C25.1909 45.4978 23.2968 53.7749 24.4738 61.9051C25.6509 70.0353 29.8146 77.4354 36.1527 82.6616C42.4908 87.8879 50.5486 90.5654 58.7542 90.1719C66.9597 89.7783 74.7243 86.3419 80.5331 80.5331L97.5976 97.5975Z" fill="url(#paint0_linear_74_268)"/>
<circle cx="57.2071" cy="57.1357" r="13.7712" fill="url(#paint1_linear_74_268)"/>
<defs>
<linearGradient id="paint0_linear_74_268" x1="10.0512" y1="-18.3971" x2="64.3013" y2="142.684" gradientUnits="userSpaceOnUse">
<stop stop-color="#343435"/>
<stop offset="1" stop-color="#343435" stop-opacity="0"/>
</linearGradient>
<linearGradient id="paint1_linear_74_268" x1="45.857" y1="38.9331" x2="58.9245" y2="77.7336" gradientUnits="userSpaceOnUse">
<stop stop-color="#343435" stop-opacity="0"/>
<stop offset="0.609375" stop-color="#343435"/>
</linearGradient>
</defs>
</svg>
